<svg version="1.2" xmlns="http://www.w3.org/2000/svg" viewBox="0 0 720 720" width="720" height="720">
	<title>az-logo</title>
	<style>
		.s0 { fill: #1d1f20 } 
		.s1 { fill: #c8c9cb } 
	</style>
	<path id="Layer 1" class="s0" d="m0 50c0-27.6 22.4-50 50-50h620c27.6 0 50 22.4 50 50v620c0 27.6-22.4 50-50 50h-620c-27.6 0-50-22.4-50-50z"/>
	<g id="Folder 1">
		<path id="A" class="s1" aria-label="A"  d="m121.7 662h-66.7l273.8-604.8h62.4l273.8 604.8h-65.8l-71.9-161.6h-333.7zm382.5-213.4l-143.8-324.8-143.7 324.8z"/>
		<path id="Z" class="s1" aria-label="Z"  d="m580.1 606.7l-223.6-505.4v-44.1h268v55.3h-220.6l223.9 505.4v44.1h-277.1v-55.3z"/>
	</g>
</svg>