<svg version="1.2" xmlns="http://www.w3.org/2000/svg" viewBox="0 0 1000 1000" width="720" height="720">
	<title>logo</title>
	<style>
		.s0 { fill: #000000 } 
		.s1 { paint-order:stroke fill markers;stroke: #ffffff;stroke-width: 30;stroke-linejoin: round;;fill: #ffffff } 
	</style>
	<path id="Layer 1" class="s0" d="m0 50c0-27.6 22.4-50 50-50h900c27.6 0 50 22.4 50 50v900c0 27.6-22.4 50-50 50h-900c-27.6 0-50-22.4-50-50z"/>
	<path id="AZ" class="s1" aria-label="AZ"  d="m451.2 695.2q-17.6 0-28.8-34.4-10.4-35.2-10.4-80 0-60 11.2-132.8-33.6 0-61.6 2.4-27.2 1.6-66.4 6.4-64 89.6-112.8 156-48.8 65.6-60.8 75.2-0.8-0.8-1.6-1.6 0-0.8 0-1.6-0.8 0-0.8 0 0-0.8-0.8-0.8 0-0.8-0.8-1.6-0.8-0.8-1.6-1.6 26.4-33.6 36.8-60 11.2-27.2 11.2-47.2 0-33.6-19.2-52.8-19.2-19.2-40.8-27.2-21.6-8.8-31.2-8.8-2.4 0-4-0.8-0.8-1.6-0.8-2.4 0-1.6 1.6-3.2 2.4-2.4 5.6-2.4 29.6 0 87.2-7.2 58.4-7.2 126.4-17.6 50.4-71.2 96.8-136.8 46.4-66.4 76.8-110.4 30.4-44 30.4-44 1.6-1.6 3.2-1.6 1.6 0 3.2 1.6 1.6 1.6 1.6 3.2l-0.8 2.4q-12 21.6-31.2 100.8-19.2 78.4-32.8 173.6 61.6 3.2 76 44 0 1.6-0.8 2.4 0 0.8-1.6 0.8-0.8 0-1.6 0 0-0.8 0-1.6-11.2-34.4-72.8-37.6-8.8 66.4-8.8 119.2 0 44 7.2 74.4 8 30.4 26.4 37.6 7.2 2.4 7.2 7.2 0 3.2-4 6.4-3.2 2.4-12 2.4zm-288.8-71.2q49.6-66.4 120.8-164.8-36.8 4.8-70.4 10.4-72.8 12.8-107.2 12.8h-5.6q13.6 2.4 30.4 13.6 16.8 11.2 29.6 31.2 13.6 20 13.6 48 0 21.6-11.2 48.8zm138.4-175.2q59.2-9.6 108.8-9.6h14.4q24.8-154.4 58.4-248-26.4 37.6-76 108-49.6 70.4-105.6 149.6zm272.8 392.8q-27.2 0-44.8-18.4-16.8-19.2-16.8-54.4 0-28 12.8-60.8 13.6-33.6 43.2-72.8 41.6-52.8 104.8-88.8 64-36 135.2-54.4l0.8-13.6q0-27.2-11.2-43.2-11.2-16.8-37.6-16.8-19.2 0-47.2 10.4h-0.8q-0.8 0-3.2-0.8-2.4-1.6-4-3.2-1.6-2.4-1.6-5.6 0-3.2 3.2-8 12.8-15.2 35.2-46.4 23.2-32 42.4-60.8 20-29.6 24.8-36.8 32.8-59.2 32.8-81.6 1.6-14.4-15.2-14.4-54.4 8.8-120.8 69.6-65.6 60.8-84 122.4 3.2 4.8 3.2 10.4 0 8.8-7.2 17.6-6.4 8.8-12 8.8-7.2 0-8-16 3.2-42.4 43.2-90.4 40-48.8 90.4-85.6 50.4-36.8 84.8-44.8l12-1.6q24 0 22.4 24 0 25.6-33.6 85.6-24 40-50.4 79.2-25.6 38.4-40.8 60.8 22.4-6.4 39.2-6.4 31.2 0 44 19.2 13.6 19.2 13.6 50.4l-0.8 14.4q53.6-12 104-12.8 2.4 0 4 1.6 1.6 0.8 1.6 2.4 0 1.6-1.6 3.2-1.6 1.6-4.8 1.6-49.6 1.6-104.8 13.6-10.4 75.2-54.4 160-43.2 84-92.8 130.4-28 28-53.6 40.8-24.8 12-45.6 12zm-0.8-8.8q19.2 0 43.2-12 24-12 50.4-38.4 43.2-40.8 86.4-124 43.2-83.2 54.4-156.8-68.8 17.6-130.4 52.8-61.6 35.2-101.6 86.4-28 36.8-40.8 70.4-12.8 33.6-12.8 59.2 0 25.6 12.8 44 12.8 18.4 38.4 18.4z"/>
</svg>